<?xml version="1.0" encoding="UTF-8"?>
<svg width="297mm" height="210mm" version="1.1" viewBox="0 0 297 210" xmlns="http://www.w3.org/2000/svg" xmlns:cc="http://creativecommons.org/ns#" xmlns:dc="http://purl.org/dc/elements/1.1/" xmlns:rdf="http://www.w3.org/1999/02/22-rdf-syntax-ns#" xmlns:xlink="http://www.w3.org/1999/xlink">
 <defs>
  <linearGradient id="linearGradient6341" x1="167.5" x2="430.96" y1="464.97" y2="464.97" gradientUnits="userSpaceOnUse">
   <stop stop-color="#08a" offset="0"/>
   <stop stop-color="#a1be35" offset="1"/>
  </linearGradient>
  <linearGradient id="linearGradient6349" x1="130" x2="430" y1="491" y2="491" gradientUnits="userSpaceOnUse">
   <stop stop-color="#bfb8f4" offset="0"/>
   <stop stop-color="#30b6f4" stop-opacity=".93333" offset="1"/>
  </linearGradient>
 </defs>
 <metadata>
  <rdf:RDF>
   <cc:Work rdf:about="">
    <dc:format>image/svg+xml</dc:format>
    <dc:type rdf:resource="http://purl.org/dc/dcmitype/StillImage"/>
    <dc:title/>
   </cc:Work>
  </rdf:RDF>
 </metadata>
 <g>
  <path transform="scale(.26458)" d="m280 341a150 150 0 0 0-150 150 150 150 0 0 0 150 150 150 150 0 0 0 150-150 150 150 0 0 0-150-150zm0 74.998a75 75 0 0 1 75 75 75 75 0 0 1-75 75 75 75 0 0 1-75-75 75 75 0 0 1 75-75z" fill="url(#linearGradient6349)" stroke-width="27.95"/>
  <path transform="scale(.26458)" d="m430 288.93c-41.55 0-75 33.45-75 75v127.06a75 75 0 0 1-1.0488 12.5 75 75 0 0 1-0.09375 0.54101 75 75 0 0 1-0.03125 0.17578 75 75 0 0 1-0.09961 0.54102 75 75 0 0 1-0.13672 0.71484 75 75 0 0 1-0.14453 0.71485 75 75 0 0 1-0.15039 0.71289 75 75 0 0 1-0.1582 0.71094 75 75 0 0 1-0.03906 0.17382 75 75 0 0 1-0.125 0.53516 75 75 0 0 1-0.00782 0.03516 75 75 0 0 1-0.14453 0.58789 75 75 0 0 1-0.01953 0.08398 75 75 0 0 1-0.04297 0.17383 75 75 0 0 1-0.16797 0.65625 75 75 0 0 1-0.01172 0.04883 75 75 0 0 1-0.14062 0.53125 75 75 0 0 1-0.04688 0.17383 75 75 0 0 1-0.03515 0.125 75 75 0 0 1-0.1582 0.57617 75 75 0 0 1 0 0.00195 75 75 0 0 1-0.20118 0.69727 75 75 0 0 1-0.11718 0.39648 75 75 0 0 1-0.03907 0.13086 75 75 0 0 1-0.19336 0.63477 75 75 0 0 1-0.01953 0.0625 75 75 0 0 1-0.05273 0.16992 75 75 0 0 1-0.16602 0.52343 75 75 0 0 1-0.05468 0.16993 75 75 0 0 1-0.16993 0.52343 75 75 0 0 1-0.05664 0.16993 75 75 0 0 1-0.17773 0.51953 75 75 0 0 1-0.17578 0.50781 75 75 0 0 1-0.0625 0.17969 75 75 0 0 1-0.19727 0.55078 75 75 0 0 1-70.514 49.449 75 75 0 0 1-75-75 75 75 0 0 1 74.221-74.996 112.5 112.5 0 0 0-111.72 112.5 112.5 112.5 0 0 0 112.5 112.5 112.5 112.5 0 0 0 0.89258-0.00391 150 150 0 0 0 149.11-150s-0.05829-0.00195-0.06055-0.00195h1.0234v-202.04c-0.32197-0.00403-0.63993-0.02344-0.96289-0.02344z" fill="url(#linearGradient6341)" stroke-width=".5625"/>
 </g>
</svg>
